HIERARCHY
ROOT Hips
{
	OFFSET -0.001795 -0.223333 0.028219
	CHANNELS 6 Xposition Yposition Zposition Zrotation Yrotation Xrotation 
	JOINT LeftUpLeg
	{
		OFFSET 0.069520 -0.091406 -0.006815
		CHANNELS 3 Zrotation Yrotation Xrotation
		JOINT LeftLeg
		{
			OFFSET 0.034277 -0.375199 -0.004496
			CHANNELS 3 Zrotation Yrotation Xrotation
			JOINT LeftFoot
			{
				OFFSET -0.013596 -0.397961 -0.043693
				CHANNELS 3 Zrotation Yrotation Xrotation
				JOINT LeftToe
				{
					OFFSET 0.026358 -0.055791 0.119288
					CHANNELS 3 Zrotation Yrotation Xrotation
					End Site
					{
						OFFSET 0.000000 0.000000 0.000000
					}
				}
			}
		}
	}
	JOINT RightUpLeg
	{
		OFFSET -0.067670 -0.090522 -0.004320
		CHANNELS 3 Zrotation Yrotation Xrotation
		JOINT RightLeg
		{
			OFFSET -0.038290 -0.382569 -0.008850
			CHANNELS 3 Zrotation Yrotation Xrotation
			JOINT RightFoot
			{
				OFFSET 0.015774 -0.398415 -0.042312
				CHANNELS 3 Zrotation Yrotation Xrotation
				JOINT RightToe
				{
					OFFSET -0.025372 -0.048144 0.123348
					CHANNELS 3 Zrotation Yrotation Xrotation
					End Site
					{
						OFFSET 0.000000 0.000000 0.000000
					}
				}
			}
		}
	}
	JOINT Spine
	{
		OFFSET -0.002533 0.108963 -0.026696
		CHANNELS 3 Zrotation Yrotation Xrotation
		JOINT Spine1
		{
			OFFSET 0.005487 0.135180 0.001092
			CHANNELS 3 Zrotation Yrotation Xrotation
			JOINT Spine2
			{
				OFFSET 0.001457 0.052922 0.025425
				CHANNELS 3 Zrotation Yrotation Xrotation
				JOINT Neck
				{
					OFFSET -0.002778 0.213870 -0.042857
					CHANNELS 3 Zrotation Yrotation Xrotation
					JOINT Head
					{
						OFFSET 0.005152 0.064970 0.051349
						CHANNELS 3 Zrotation Yrotation Xrotation
						End Site
						{
							OFFSET 0.000000 0.000000 0.000000
						}
					}
				}
				JOINT LeftShoulder
				{
					OFFSET 0.078845 0.121749 -0.034090
					CHANNELS 3 Zrotation Yrotation Xrotation
					JOINT LeftArm
					{
						OFFSET 0.090977 0.030469 -0.008868
						CHANNELS 3 Zrotation Yrotation Xrotation
						JOINT LeftForeArm
						{
							OFFSET 0.259612 -0.012772 -0.027456
							CHANNELS 3 Zrotation Yrotation Xrotation
							JOINT LeftHand
							{
								OFFSET 0.249234 0.008986 -0.001171
								CHANNELS 3 Zrotation Yrotation Xrotation
								End Site
								{
									OFFSET 0.000000 0.000000 0.000000
								}
							}
						}
					}
				}
				JOINT RightShoulder
				{
					OFFSET -0.081759 0.118833 -0.038615
					CHANNELS 3 Zrotation Yrotation Xrotation
					JOINT RightArm
					{
						OFFSET -0.096012 0.032551 -0.009143
						CHANNELS 3 Zrotation Yrotation Xrotation
						JOINT RightForeArm
						{
							OFFSET -0.253742 -0.013329 -0.021401
							CHANNELS 3 Zrotation Yrotation Xrotation
							JOINT RightHand
							{
								OFFSET -0.255298 0.007772 -0.005559
								CHANNELS 3 Zrotation Yrotation Xrotation
								End Site
								{
									OFFSET 0.000000 0.000000 0.000000
								}
							}
						}
					}
				}
			}
		}
	}
}
MOTION
Frames: 9
Frame Time: 0.050000
0.000000 0.940676 0.000000 -0.659428 -1.694724 6.044313 5.913337 -0.214915 -1.775612 1.164059 0.180941 -6.885482 1.176809 5.724411 9.807283 0.000000 0.000000 0.000000 -5.506377 0.445281 -4.053117 -1.432190 0.023485 -2.301020 -1.200325 -6.324551 8.326350 0.000000 0.000000 0.000000 3.088755 0.201764 -4.245862 -1.704418 0.818621 -3.326954 -1.751770 2.365271 3.090297 0.974636 0.290911 -10.816443 0.000000 0.000000 0.000000 -16.352224 1.574418 -2.769843 -54.959484 -6.773965 -3.240433 -8.212225 -14.761452 1.544584 0.000000 0.000000 0.000000 13.968462 -3.924920 -2.913807 60.819288 5.141974 -2.997231 6.849696 17.104785 1.493937 0.000000 0.000000 0.000000 
0.000382 0.940011 0.000570 -0.775942 -3.302650 6.432189 5.336969 -0.156937 -0.832458 2.291421 0.212124 -8.398151 1.710510 6.525841 9.987702 0.000000 0.000000 0.000000 -5.799903 0.504646 -4.694253 -1.210462 -0.001318 -2.365046 -0.212697 -4.388681 8.167505 0.000000 0.000000 0.000000 3.823223 0.214977 -4.328890 -2.871939 1.309652 -3.689809 -1.394609 2.973481 2.578158 -0.483115 1.294415 -11.946978 0.000000 0.000000 0.000000 -17.244276 3.000473 -3.565167 -54.341806 -6.704714 -3.176386 -9.176333 -14.349648 1.623301 0.000000 0.000000 0.000000 13.123644 -4.612809 -3.210276 61.925877 4.418241 -3.362520 7.377859 17.558211 1.596136 0.000000 0.000000 0.000000 
0.000631 0.939887 0.000833 -0.355480 -2.502977 6.399456 4.891035 -0.171336 -1.091739 2.499424 0.160884 -7.667754 1.084059 5.282670 9.083189 0.000000 0.000000 0.000000 -6.155474 0.499374 -4.744081 -1.206841 0.007736 -2.212798 -1.230323 -6.257441 7.725212 0.000000 0.000000 0.000000 3.246714 0.177652 -3.913890 -2.339412 1.080479 -5.076651 -1.951298 2.141587 2.914997 -0.999014 1.584061 -11.634089 0.000000 0.000000 0.000000 -16.573017 2.742496 -3.263087 -54.869155 -6.415384 -3.384816 -8.503584 -13.685391 1.475126 0.000000 0.000000 0.000000 14.281233 -3.592658 -2.902779 60.745360 4.035935 -3.565864 6.928362 17.400576 1.513453 0.000000 0.000000 0.000000 
0.000766 0.939906 0.000986 -0.447319 -2.791936 6.727732 4.905009 -0.174806 -1.115137 2.619460 0.178391 -8.037275 1.061504 5.294750 9.371756 0.000000 0.000000 0.000000 -6.355383 0.536542 -5.323454 -0.955523 -0.001373 -1.972104 -1.293284 -6.443534 7.812741 0.000000 0.000000 0.000000 3.220571 0.181281 -4.008982 -2.903647 1.313654 -4.977524 -1.116875 1.332928 2.043409 -2.169509 2.190071 -10.513358 0.000000 0.000000 0.000000 -16.377740 3.785626 -3.552242 -55.694829 -6.805281 -3.171712 -7.836912 -12.856080 1.328479 0.000000 0.000000 0.000000 13.024469 -3.468435 -2.887876 61.079318 3.858007 -3.618061 7.789817 17.523388 1.597470 0.000000 0.000000 0.000000 
0.000778 0.940421 0.001031 -0.356640 -2.161422 6.638596 4.594388 -0.177571 -1.159011 2.901112 0.166290 -8.013574 0.863813 5.017699 9.386312 0.000000 0.000000 0.000000 -6.430243 0.524071 -5.266034 -0.981271 -0.000803 -2.028890 -1.697951 -7.280180 7.993548 0.000000 0.000000 0.000000 2.913271 0.169851 -3.873143 -2.517455 1.158226 -5.214406 -1.309794 0.829797 2.263153 -2.814679 2.615867 -10.811880 0.000000 0.000000 0.000000 -16.258111 3.603578 -3.416676 -55.915896 -7.516678 -2.870867 -8.022466 -12.093255 1.267546 0.000000 0.000000 0.000000 12.811741 -3.642938 -2.953095 61.220287 4.054033 -3.553455 7.816393 17.205023 1.567447 0.000000 0.000000 0.000000 
0.000767 0.940703 0.001032 -0.388126 -2.099976 6.901895 4.581726 -0.194680 -1.421393 3.100707 0.158305 -8.002236 0.911240 5.125882 9.460916 0.000000 0.000000 0.000000 -6.397333 0.538588 -5.511830 -1.094475 0.003976 -2.119093 -1.651625 -7.306303 8.397234 0.000000 0.000000 0.000000 2.651019 0.180265 -4.076602 -2.469866 1.138133 -5.332976 -0.914365 0.571925 2.308848 -3.047610 2.740527 -10.676684 0.000000 0.000000 0.000000 -16.525879 4.090735 -3.638557 -56.265948 -8.072643 -2.625099 -7.540656 -11.340742 1.144366 0.000000 0.000000 0.000000 12.249237 -3.485941 -2.847521 61.463757 4.096920 -3.564157 7.812992 17.066109 1.543235 0.000000 0.000000 0.000000 
0.000713 0.940956 0.000949 -0.477819 -1.751670 6.894383 4.588635 -0.196459 -1.400643 3.258974 0.165012 -8.191797 0.830074 5.147405 9.897463 0.000000 0.000000 0.000000 -6.178332 0.530039 -5.428032 -1.292975 0.018469 -2.165851 -1.644653 -7.271503 8.434080 0.000000 0.000000 0.000000 2.491599 0.164504 -3.859523 -2.250257 1.051912 -5.488702 -0.943411 0.089469 2.347612 -3.079061 2.754619 -11.198075 0.000000 0.000000 0.000000 -16.458859 4.241378 -3.646980 -56.425567 -8.121871 -2.611669 -7.975115 -11.267118 1.183176 0.000000 0.000000 0.000000 12.408159 -3.386185 -2.867091 61.400168 3.928157 -3.666542 7.776417 17.181275 1.540884 0.000000 0.000000 0.000000 
0.000718 0.941049 0.000817 -0.663829 -1.537629 7.075853 4.674622 -0.219526 -1.754046 3.549699 0.132326 -7.856554 0.943754 5.274639 9.589585 0.000000 0.000000 0.000000 -6.043258 0.536427 -5.550271 -1.339026 0.029816 -2.024551 -1.688200 -7.293021 8.280293 0.000000 0.000000 0.000000 2.328574 0.168520 -3.957786 -2.120170 1.000619 -5.483548 -0.687459 -0.089597 2.334338 -3.139278 2.788402 -11.368254 0.000000 0.000000 0.000000 -16.301664 4.289419 -3.626501 -56.559618 -8.310320 -2.521706 -8.367304 -11.379249 1.235225 0.000000 0.000000 0.000000 12.152173 -3.378309 -2.843993 61.692713 3.782495 -3.766783 7.833607 17.027941 1.529118 0.000000 0.000000 0.000000 
0.000696 0.941309 0.000654 -0.827836 -1.354589 7.159047 4.917680 -0.236401 -1.993862 3.570763 0.113273 -7.579438 0.893649 5.135232 9.352904 0.000000 0.000000 0.000000 -5.951821 0.535813 -5.549315 -1.276883 0.020429 -2.115190 -1.648520 -7.166259 8.191963 0.000000 0.000000 0.000000 2.128957 0.170443 -4.005784 -1.896530 0.911145 -5.734762 -0.413633 -0.170529 2.471834 -2.985520 2.693790 -11.568469 0.000000 0.000000 0.000000 -15.903232 4.236726 -3.534033 -56.910408 -8.540994 -2.432524 -8.784331 -11.269983 1.263065 0.000000 0.000000 0.000000 12.131990 -3.309681 -2.811876 61.481367 3.772984 -3.773808 7.685610 16.616076 1.469679 0.000000 0.000000 0.000000 
